<svg width="29" height="29" viewBox="0 0 29 29" fill="none" xmlns="http://www.w3.org/2000/svg">
<g clip-path="url(#clip0_288_1382)">
<path d="M14.5003 2.4165C7.83033 2.4165 2.41699 7.82984 2.41699 14.4998C2.41699 21.1698 7.83033 26.5832 14.5003 26.5832C21.1703 26.5832 26.5837 21.1698 26.5837 14.4998C26.5837 7.82984 21.1703 2.4165 14.5003 2.4165ZM14.5003 6.0415C16.5062 6.0415 18.1253 7.66067 18.1253 9.6665C18.1253 11.6723 16.5062 13.2915 14.5003 13.2915C12.4945 13.2915 10.8753 11.6723 10.8753 9.6665C10.8753 7.66067 12.4945 6.0415 14.5003 6.0415ZM14.5003 23.1998C11.4795 23.1998 8.80908 21.6532 7.25033 19.309C7.28658 16.9044 12.0837 15.5873 14.5003 15.5873C16.9049 15.5873 21.7141 16.9044 21.7503 19.309C20.1916 21.6532 17.5212 23.1998 14.5003 23.1998Z" fill="#E3F5F5"/>
</g>
<defs>
<clipPath id="clip0_288_1382">
<rect width="29" height="29" fill="white"/>
</clipPath>
</defs>
</svg>
