<svg width="50" height="51" viewBox="0 0 50 51" fill="none" xmlns="http://www.w3.org/2000/svg">
<g id="call_split" clip-path="url(#clip0_286_1872)">
<path id="Vector" d="M30.9372 10.3541L33.9372 13.3541L27.9372 19.3541L30.8955 22.3124L36.8955 16.3124L39.8955 19.3124C40.5413 19.9583 41.6663 19.4999 41.6663 18.5624V9.62492C41.6663 9.04159 41.208 8.58325 40.6247 8.58325H31.6872C30.7497 8.58325 30.2913 9.70825 30.9372 10.3541ZM18.3122 8.58325H9.37467C8.79134 8.58325 8.33301 9.04159 8.33301 9.62492V18.5624C8.33301 19.4999 9.45801 19.9583 10.1038 19.2916L13.1038 16.2916L22.9163 26.0833V39.8333C22.9163 40.9791 23.8538 41.9166 24.9997 41.9166C26.1455 41.9166 27.083 40.9791 27.083 39.8333V25.2499C27.083 24.7083 26.8538 24.1666 26.4788 23.7708L16.0622 13.3333L19.0622 10.3333C19.708 9.70825 19.2497 8.58325 18.3122 8.58325Z" fill="#323232"/>
</g>
<defs>
<clipPath id="clip0_286_1872">
<rect width="50" height="50" fill="white" transform="translate(0 0.25)"/>
</clipPath>
</defs>
</svg>
