<svg width="25" height="24" viewBox="0 0 25 24" fill="none" xmlns="http://www.w3.org/2000/svg">
<path d="M16.6569 1.57259L18.7569 3.67259L14.5569 7.87259L16.6277 9.94342L20.8277 5.74342L22.9277 7.84342C23.3798 8.29551 24.1673 7.97467 24.1673 7.31842V1.06217C24.1673 0.653841 23.8465 0.333008 23.4381 0.333008H17.1819C16.5257 0.333008 16.2048 1.12051 16.6569 1.57259V1.57259ZM7.8194 0.333008H1.56315C1.15482 0.333008 0.833984 0.653841 0.833984 1.06217V7.31842C0.833984 7.97467 1.62148 8.29551 2.07357 7.82884L4.17357 5.72884L11.0423 12.583V22.208C11.0423 23.0101 11.6986 23.6663 12.5007 23.6663C13.3027 23.6663 13.959 23.0101 13.959 22.208V11.9997C13.959 11.6205 13.7986 11.2413 13.5361 10.9643L6.2444 3.65801L8.3444 1.55801C8.79648 1.12051 8.47565 0.333008 7.8194 0.333008V0.333008Z" fill="#323232"/>
</svg>
