<svg width="24" height="25" viewBox="0 0 24 25" fill="none" xmlns="http://www.w3.org/2000/svg">
<path d="M21.3333 0.5H2.66667C1.2 0.5 0 1.7 0 3.16667V21.8333C0 23.3 1.2 24.5 2.66667 24.5H21.3333C22.8 24.5 24 23.3 24 21.8333V3.16667C24 1.7 22.8 0.5 21.3333 0.5ZM10.28 18.22C9.76 18.74 8.92 18.74 8.4 18.22L3.61333 13.4333C3.09333 12.9133 3.09333 12.0733 3.61333 11.5533C4.13333 11.0333 4.97333 11.0333 5.49333 11.5533L9.33333 15.3933L18.5067 6.22C19.0267 5.7 19.8667 5.7 20.3867 6.22C20.9067 6.74 20.9067 7.58 20.3867 8.1L10.28 18.22V18.22Z" fill="#323232"/>
</svg>
