<svg width="50" height="17" viewBox="0 0 50 17" fill="none" xmlns="http://www.w3.org/2000/svg">
<g id="code" clip-path="url(#clip0_689_1339)">
<path id="Vector" d="M18.1247 16.7248L9.99967 8.59977L18.1247 0.474773C18.9372 -0.337727 18.9372 -1.62939 18.1247 -2.44189C17.3122 -3.25439 16.0205 -3.25439 15.208 -2.44189L5.64551 7.12061C4.83301 7.93311 4.83301 9.24561 5.64551 10.0581L15.208 19.6414C16.0205 20.4539 17.3122 20.4539 18.1247 19.6414C18.9372 18.8289 18.9372 17.5373 18.1247 16.7248ZM31.8747 16.7248L39.9997 8.59977L31.8747 0.474773C31.0622 -0.337727 31.0622 -1.62939 31.8747 -2.44189C32.6872 -3.25439 33.9788 -3.25439 34.7913 -2.44189L44.3538 7.12061C45.1663 7.93311 45.1663 9.24561 44.3538 10.0581L34.7913 19.6414C33.9788 20.4539 32.6872 20.4539 31.8747 19.6414C31.0622 18.8289 31.0622 17.5373 31.8747 16.7248Z" fill="#323232"/>
</g>
<defs>
<clipPath id="clip0_689_1339">
<rect width="50" height="50" fill="white" transform="translate(0 -16.4004)"/>
</clipPath>
</defs>
</svg>
