<svg width="35" height="35" viewBox="0 0 35 35" fill="none" xmlns="http://www.w3.org/2000/svg">
<g id="content_copy" clip-path="url(#clip0_263_1314)">
<path id="Vector" d="M21.8753 1.45825H5.83366C4.22949 1.45825 2.91699 2.77075 2.91699 4.37492V23.3333C2.91699 24.1353 3.57324 24.7916 4.37533 24.7916C5.17741 24.7916 5.83366 24.1353 5.83366 23.3333V5.83325C5.83366 5.03117 6.48991 4.37492 7.29199 4.37492H21.8753C22.6774 4.37492 23.3337 3.71867 23.3337 2.91659C23.3337 2.1145 22.6774 1.45825 21.8753 1.45825ZM27.7087 7.29159H11.667C10.0628 7.29159 8.75033 8.60409 8.75033 10.2083V30.6249C8.75033 32.2291 10.0628 33.5416 11.667 33.5416H27.7087C29.3128 33.5416 30.6253 32.2291 30.6253 30.6249V10.2083C30.6253 8.60409 29.3128 7.29159 27.7087 7.29159ZM26.2503 30.6249H13.1253C12.3232 30.6249 11.667 29.9687 11.667 29.1666V11.6666C11.667 10.8645 12.3232 10.2083 13.1253 10.2083H26.2503C27.0524 10.2083 27.7087 10.8645 27.7087 11.6666V29.1666C27.7087 29.9687 27.0524 30.6249 26.2503 30.6249Z" fill="#323232"/>
</g>
<defs>
<clipPath id="clip0_263_1314">
<rect width="35" height="35" fill="white"/>
</clipPath>
</defs>
</svg>
