<svg width="35" height="36" viewBox="0 0 35 36" fill="none" xmlns="http://www.w3.org/2000/svg">
<g id="dashboard" clip-path="url(#clip0_289_1427)">
<path id="Vector" d="M5.83333 19.4583H14.5833C15.3854 19.4583 16.0417 18.8021 16.0417 18V6.33333C16.0417 5.53125 15.3854 4.875 14.5833 4.875H5.83333C5.03125 4.875 4.375 5.53125 4.375 6.33333V18C4.375 18.8021 5.03125 19.4583 5.83333 19.4583ZM5.83333 31.125H14.5833C15.3854 31.125 16.0417 30.4688 16.0417 29.6667V23.8333C16.0417 23.0312 15.3854 22.375 14.5833 22.375H5.83333C5.03125 22.375 4.375 23.0312 4.375 23.8333V29.6667C4.375 30.4688 5.03125 31.125 5.83333 31.125ZM20.4167 31.125H29.1667C29.9688 31.125 30.625 30.4688 30.625 29.6667V18C30.625 17.1979 29.9688 16.5417 29.1667 16.5417H20.4167C19.6146 16.5417 18.9583 17.1979 18.9583 18V29.6667C18.9583 30.4688 19.6146 31.125 20.4167 31.125ZM18.9583 6.33333V12.1667C18.9583 12.9688 19.6146 13.625 20.4167 13.625H29.1667C29.9688 13.625 30.625 12.9688 30.625 12.1667V6.33333C30.625 5.53125 29.9688 4.875 29.1667 4.875H20.4167C19.6146 4.875 18.9583 5.53125 18.9583 6.33333Z" fill="white"/>
</g>
<defs>
<clipPath id="clip0_289_1427">
<rect width="35" height="35" fill="white" transform="translate(0 0.5)"/>
</clipPath>
</defs>
</svg>
