<svg width="33" height="34" viewBox="0 0 33 34" fill="none" xmlns="http://www.w3.org/2000/svg">
<g clip-path="url(#clip0_288_1408)">
<path d="M8.25 26.9167C8.25 28.475 9.4875 29.75 11 29.75H22C23.5125 29.75 24.75 28.475 24.75 26.9167V12.75C24.75 11.1917 23.5125 9.91667 22 9.91667H11C9.4875 9.91667 8.25 11.1917 8.25 12.75V26.9167ZM12.6088 15.8242C13.145 15.2717 14.0113 15.2717 14.5475 15.8242L16.5 17.8358L18.4525 15.8242C18.9888 15.2717 19.855 15.2717 20.3912 15.8242C20.9275 16.3767 20.9275 17.2692 20.3912 17.8217L18.4387 19.8333L20.3912 21.845C20.9275 22.3975 20.9275 23.29 20.3912 23.8425C19.855 24.395 18.9888 24.395 18.4525 23.8425L16.5 21.8308L14.5475 23.8425C14.0113 24.395 13.145 24.395 12.6088 23.8425C12.0725 23.29 12.0725 22.3975 12.6088 21.845L14.5613 19.8333L12.6088 17.8217C12.0725 17.2833 12.0725 16.3767 12.6088 15.8242ZM21.3125 5.66667L20.3363 4.66083C20.0887 4.40583 19.7312 4.25 19.3738 4.25H13.6262C13.2687 4.25 12.9113 4.40583 12.6638 4.66083L11.6875 5.66667H8.25C7.49375 5.66667 6.875 6.30417 6.875 7.08333C6.875 7.8625 7.49375 8.5 8.25 8.5H24.75C25.5063 8.5 26.125 7.8625 26.125 7.08333C26.125 6.30417 25.5063 5.66667 24.75 5.66667H21.3125Z" fill="#F42F3B" fill-opacity="0.89"/>
</g>
<defs>
<clipPath id="clip0_288_1408">
<rect width="33" height="34" fill="white"/>
</clipPath>
</defs>
</svg>
