<svg width="50" height="51" viewBox="0 0 50 51" fill="none" xmlns="http://www.w3.org/2000/svg">
<g id="description" clip-path="url(#clip0_286_1857)">
<path id="Vector" d="M30.3955 6.14591C29.6038 5.35425 28.5413 4.91675 27.4372 4.91675H12.4997C10.208 4.91675 8.33301 6.79175 8.33301 9.08341V42.4167C8.33301 44.7084 10.1872 46.5834 12.4788 46.5834H37.4997C39.7913 46.5834 41.6663 44.7084 41.6663 42.4167V19.1459C41.6663 18.0417 41.2288 16.9792 40.4372 16.2084L30.3955 6.14591ZM31.2497 38.2501H18.7497C17.6038 38.2501 16.6663 37.3126 16.6663 36.1667C16.6663 35.0209 17.6038 34.0834 18.7497 34.0834H31.2497C32.3955 34.0834 33.333 35.0209 33.333 36.1667C33.333 37.3126 32.3955 38.2501 31.2497 38.2501ZM31.2497 29.9167H18.7497C17.6038 29.9167 16.6663 28.9792 16.6663 27.8334C16.6663 26.6876 17.6038 25.7501 18.7497 25.7501H31.2497C32.3955 25.7501 33.333 26.6876 33.333 27.8334C33.333 28.9792 32.3955 29.9167 31.2497 29.9167ZM27.083 17.4167V8.04175L38.5413 19.5001H29.1663C28.0205 19.5001 27.083 18.5626 27.083 17.4167Z" fill="#323232"/>
</g>
<defs>
<clipPath id="clip0_286_1857">
<rect width="50" height="50" fill="white" transform="translate(0 0.75)"/>
</clipPath>
</defs>
</svg>
