<svg width="25" height="30" viewBox="0 0 25 30" fill="none" xmlns="http://www.w3.org/2000/svg">
<path d="M16.2777 1.27741C15.7236 0.723242 14.9798 0.416992 14.2069 0.416992H3.75065C2.14648 0.416992 0.833984 1.72949 0.833984 3.33366V26.667C0.833984 28.2712 2.1319 29.5837 3.73607 29.5837H21.2506C22.8548 29.5837 24.1673 28.2712 24.1673 26.667V10.3774C24.1673 9.60449 23.8611 8.86074 23.3069 8.32116L16.2777 1.27741ZM16.8757 23.7503H8.12565C7.32357 23.7503 6.66732 23.0941 6.66732 22.292C6.66732 21.4899 7.32357 20.8337 8.12565 20.8337H16.8757C17.6777 20.8337 18.334 21.4899 18.334 22.292C18.334 23.0941 17.6777 23.7503 16.8757 23.7503ZM16.8757 17.917H8.12565C7.32357 17.917 6.66732 17.2607 6.66732 16.4587C6.66732 15.6566 7.32357 15.0003 8.12565 15.0003H16.8757C17.6777 15.0003 18.334 15.6566 18.334 16.4587C18.334 17.2607 17.6777 17.917 16.8757 17.917ZM13.959 9.16699V2.60449L21.9798 10.6253H15.4173C14.6152 10.6253 13.959 9.96908 13.959 9.16699Z" fill="#545454"/>
</svg>
