<svg width="50" height="51" viewBox="0 0 50 51" fill="none" xmlns="http://www.w3.org/2000/svg">
<g id="flag" clip-path="url(#clip0_286_2249)">
<path id="Vector" d="M30.0003 12.9999L29.5003 10.4999C29.3128 9.54159 28.4587 8.83325 27.4587 8.83325H12.5003C11.3545 8.83325 10.417 9.77075 10.417 10.9166V42.1666C10.417 43.3124 11.3545 44.2499 12.5003 44.2499C13.6462 44.2499 14.5837 43.3124 14.5837 42.1666V29.6666H26.2503L26.7503 32.1666C26.9378 33.1458 27.792 33.8333 28.792 33.8333H39.5837C40.7295 33.8333 41.667 32.8958 41.667 31.7499V15.0833C41.667 13.9374 40.7295 12.9999 39.5837 12.9999H30.0003Z" fill="black"/>
</g>
<defs>
<clipPath id="clip0_286_2249">
<rect width="50" height="50" fill="white" transform="translate(0 0.5)"/>
</clipPath>
</defs>
</svg>
