<svg width="40" height="24" viewBox="0 0 40 24" fill="none" xmlns="http://www.w3.org/2000/svg">
<path d="M13.1247 20.3254L4.99967 12.2004L13.1247 4.07536C13.9372 3.26286 13.9372 1.97119 13.1247 1.15869C12.3122 0.346191 11.0205 0.346191 10.208 1.15869L0.645508 10.7212C-0.166992 11.5337 -0.166992 12.8462 0.645508 13.6587L10.208 23.242C11.0205 24.0545 12.3122 24.0545 13.1247 23.242C13.9372 22.4295 13.9372 21.1379 13.1247 20.3254V20.3254ZM26.8747 20.3254L34.9997 12.2004L26.8747 4.07536C26.0622 3.26286 26.0622 1.97119 26.8747 1.15869C27.6872 0.346191 28.9788 0.346191 29.7913 1.15869L39.3538 10.7212C40.1663 11.5337 40.1663 12.8462 39.3538 13.6587L29.7913 23.242C28.9788 24.0545 27.6872 24.0545 26.8747 23.242C26.0622 22.4295 26.0622 21.1379 26.8747 20.3254V20.3254Z" fill="#323232"/>
</svg>
