<svg width="50" height="51" viewBox="0 0 50 51" fill="none" xmlns="http://www.w3.org/2000/svg">
<g id="loop">
<path id="Vector" d="M24.9997 9.08336V5.35419C24.9997 4.41669 23.8747 3.95836 23.2288 4.62502L17.3955 10.4375C16.9788 10.8542 16.9788 11.5 17.3955 11.9167L23.208 17.7292C23.8747 18.375 24.9997 17.9167 24.9997 16.9792V13.25C31.8955 13.25 37.4997 18.8542 37.4997 25.75C37.4997 27.3959 37.1872 29 36.583 30.4375C36.2705 31.1875 36.4997 32.0417 37.0622 32.6042C38.1247 33.6667 39.9163 33.2917 40.4788 31.8959C41.2497 30 41.6663 27.9167 41.6663 25.75C41.6663 16.5417 34.208 9.08336 24.9997 9.08336ZM24.9997 38.25C18.1038 38.25 12.4997 32.6459 12.4997 25.75C12.4997 24.1042 12.8122 22.5 13.4163 21.0625C13.7288 20.3125 13.4997 19.4584 12.9372 18.8959C11.8747 17.8334 10.083 18.2084 9.52051 19.6042C8.74967 21.5 8.33301 23.5834 8.33301 25.75C8.33301 34.9584 15.7913 42.4167 24.9997 42.4167V46.1459C24.9997 47.0834 26.1247 47.5417 26.7705 46.875L32.583 41.0625C32.9997 40.6459 32.9997 40 32.583 39.5834L26.7705 33.7709C26.1247 33.125 24.9997 33.5834 24.9997 34.5209V38.25Z" fill="#323232"/>
</g>
</svg>
