<svg width="20" height="21" viewBox="0 0 20 21" fill="none" xmlns="http://www.w3.org/2000/svg">
<g id="Shape/More">
<path id="Shape/More_2" d="M9.99247 8.30488C11.1829 8.30488 12.1353 9.28049 12.1353 10.5C12.1353 11.7195 11.1829 12.6951 9.99247 12.6951C8.80199 12.6951 7.84961 11.7195 7.84961 10.5C7.84961 9.28049 8.80199 8.30488 9.99247 8.30488ZM7.84961 2.69512C7.84961 3.91463 8.80199 4.89024 9.99247 4.89024C11.1829 4.89024 12.1353 3.91463 12.1353 2.69512C12.1353 1.47561 11.1829 0.5 9.99247 0.5C8.80199 0.5 7.84961 1.47561 7.84961 2.69512ZM7.84961 18.3049C7.84961 19.5244 8.80199 20.5 9.99247 20.5C11.1829 20.5 12.1353 19.5244 12.1353 18.3049C12.1353 17.0854 11.1829 16.1098 9.99247 16.1098C8.80199 16.1098 7.84961 17.0854 7.84961 18.3049Z" fill="#031C5B"/>
</g>
</svg>
