<svg width="35" height="35" viewBox="0 0 35 35" fill="none" xmlns="http://www.w3.org/2000/svg">
<g id="outlined_flag" clip-path="url(#clip0_263_1773)">
<path id="Vector" d="M20.417 8.74992L19.367 6.63534C19.1191 6.1395 18.6087 5.83325 18.0545 5.83325H8.75033C7.94824 5.83325 7.29199 6.4895 7.29199 7.29159V29.1666C7.29199 29.9687 7.94824 30.6249 8.75033 30.6249C9.55241 30.6249 10.2087 29.9687 10.2087 29.1666V20.4166H17.5003L18.5503 22.5312C18.7982 23.027 19.3087 23.3333 19.8482 23.3333H27.7087C28.5107 23.3333 29.167 22.677 29.167 21.8749V10.2083C29.167 9.40617 28.5107 8.74992 27.7087 8.74992H20.417ZM26.2503 20.4166H20.417L18.9587 17.4999H10.2087V8.74992H17.5003L18.9587 11.6666H26.2503V20.4166Z" fill="#323232"/>
</g>
<defs>
<clipPath id="clip0_263_1773">
<rect width="35" height="35" fill="white"/>
</clipPath>
</defs>
</svg>
