<svg width="50" height="51" viewBox="0 0 50 51" fill="none" xmlns="http://www.w3.org/2000/svg">
<g id="outlined_flag" clip-path="url(#clip0_286_1846)">
<path id="Vector" d="M29.167 12.9999L27.667 9.97909C27.3128 9.27075 26.5837 8.83325 25.792 8.83325H12.5003C11.3545 8.83325 10.417 9.77075 10.417 10.9166V42.1666C10.417 43.3124 11.3545 44.2499 12.5003 44.2499C13.6462 44.2499 14.5837 43.3124 14.5837 42.1666V29.6666H25.0003L26.5003 32.6874C26.8545 33.3958 27.5837 33.8333 28.3545 33.8333H39.5837C40.7295 33.8333 41.667 32.8958 41.667 31.7499V15.0833C41.667 13.9374 40.7295 12.9999 39.5837 12.9999H29.167ZM37.5003 29.6666H29.167L27.0837 25.4999H14.5837V12.9999H25.0003L27.0837 17.1666H37.5003V29.6666Z" fill="#D6D6D6"/>
</g>
<defs>
<clipPath id="clip0_286_1846">
<rect width="50" height="50" fill="white" transform="translate(0 0.5)"/>
</clipPath>
</defs>
</svg>
