<svg width="45" height="46" viewBox="0 0 50 51" fill="none" xmlns="http://www.w3.org/2000/svg">
<g id="restore" clip-path="url(#clip0_718_3315)">
<path id="Vector" d="M27.6038 6.75045C16.9996 6.45879 8.31212 14.9588 8.31212 25.5005H4.58295C3.64545 25.5005 3.18712 26.6255 3.85378 27.2713L9.66628 33.1046C10.0829 33.5213 10.7288 33.5213 11.1454 33.1046L16.9579 27.2713C17.6246 26.6255 17.1454 25.5005 16.2288 25.5005H12.4788C12.4788 17.3755 19.1038 10.813 27.2704 10.9171C35.0204 11.0213 41.5413 17.5421 41.6454 25.2921C41.7496 33.438 35.1871 40.0838 27.0621 40.0838C23.7079 40.0838 20.6038 38.938 18.1454 37.0005C17.3121 36.3546 16.1454 36.4171 15.3954 37.1671C14.5204 38.063 14.5829 39.5213 15.5621 40.2921C18.7288 42.7713 22.7288 44.2505 27.0621 44.2505C37.5829 44.2505 46.1038 35.563 45.8121 24.9588C45.5413 15.188 37.3746 7.02129 27.6038 6.75045ZM26.5413 17.1671C25.6871 17.1671 24.9788 17.8755 24.9788 18.7296V26.3963C24.9788 27.1255 25.3746 27.813 25.9996 28.188L32.4996 32.0421C33.2496 32.4796 34.2079 32.2296 34.6454 31.5005C35.0829 30.7505 34.833 29.7921 34.1038 29.3546L28.1038 25.7921V18.7088C28.1038 17.8755 27.4163 17.1671 26.5413 17.1671Z" fill="#323232"/>
</g>
<defs>
<clipPath id="clip0_718_3315">
<rect width="50" height="50" fill="white" transform="translate(0 0.5)"/>
</clipPath>
</defs>
</svg>
