<svg width="30" height="30" viewBox="0 0 30 30" fill="none" xmlns="http://www.w3.org/2000/svg">
<g id="vpn_key">
<path id="Vector" d="M15.8122 12.4999C14.6247 9.13741 11.1247 6.87491 7.21224 7.64991C4.34974 8.22491 2.02474 10.5124 1.42474 13.3749C0.399742 18.2124 4.07474 22.4999 8.74974 22.4999C12.0122 22.4999 14.7872 20.4124 15.8122 17.4999H21.2497V19.9999C21.2497 21.3749 22.3747 22.4999 23.7497 22.4999C25.1247 22.4999 26.2497 21.3749 26.2497 19.9999V17.4999C27.6247 17.4999 28.7497 16.3749 28.7497 14.9999C28.7497 13.6249 27.6247 12.4999 26.2497 12.4999H15.8122ZM8.74974 17.4999C7.37474 17.4999 6.24974 16.3749 6.24974 14.9999C6.24974 13.6249 7.37474 12.4999 8.74974 12.4999C10.1247 12.4999 11.2497 13.6249 11.2497 14.9999C11.2497 16.3749 10.1247 17.4999 8.74974 17.4999Z" fill="#323232"/>
</g>
</svg>
