<svg width="30" height="30" viewBox="0 0 30 30" fill="none" xmlns="http://www.w3.org/2000/svg">
<g id="search" clip-path="url(#clip0_552_1335)">
<path id="Vector" d="M19.3748 17.4998H18.3873L18.0373 17.1623C19.5373 15.4123 20.3123 13.0248 19.8873 10.4873C19.2998 7.01231 16.3998 4.23731 12.8998 3.81231C7.61231 3.16231 3.16231 7.61231 3.81231 12.8998C4.23731 16.3998 7.01231 19.2998 10.4873 19.8873C13.0248 20.3123 15.4123 19.5373 17.1623 18.0373L17.4998 18.3873V19.3748L22.8123 24.6873C23.3248 25.1998 24.1623 25.1998 24.6748 24.6873C25.1873 24.1748 25.1873 23.3373 24.6748 22.8248L19.3748 17.4998ZM11.8748 17.4998C8.76231 17.4998 6.24981 14.9873 6.24981 11.8748C6.24981 8.76231 8.76231 6.24981 11.8748 6.24981C14.9873 6.24981 17.4998 8.76231 17.4998 11.8748C17.4998 14.9873 14.9873 17.4998 11.8748 17.4998Z" fill="#323232"/>
</g>
<defs>
<clipPath id="clip0_552_1335">
<rect width="30" height="30" fill="white"/>
</clipPath>
</defs>
</svg>
