<svg width="35" height="35" viewBox="0 0 35 35" fill="none" xmlns="http://www.w3.org/2000/svg">
<g id="search" clip-path="url(#clip0_489_1270)">
<path id="Vector" d="M22.6041 20.4166H21.452L21.0437 20.0229C22.7937 17.9812 23.6979 15.1958 23.202 12.2354C22.5166 8.18119 19.1333 4.94369 15.0499 4.44785C8.88119 3.68952 3.68952 8.88119 4.44785 15.0499C4.94369 19.1333 8.18119 22.5166 12.2354 23.202C15.1958 23.6979 17.9812 22.7937 20.0229 21.0437L20.4166 21.452V22.6041L26.6145 28.802C27.2124 29.3999 28.1895 29.3999 28.7874 28.802C29.3854 28.2041 29.3854 27.227 28.7874 26.6291L22.6041 20.4166ZM13.8541 20.4166C10.2229 20.4166 7.2916 17.4854 7.2916 13.8541C7.2916 10.2229 10.2229 7.2916 13.8541 7.2916C17.4854 7.2916 20.4166 10.2229 20.4166 13.8541C20.4166 17.4854 17.4854 20.4166 13.8541 20.4166Z" fill="#323232"/>
</g>
<defs>
<clipPath id="clip0_489_1270">
<rect width="35" height="35" fill="white"/>
</clipPath>
</defs>
</svg>
