<svg width="20" height="21" viewBox="0 0 20 21" fill="none" xmlns="http://www.w3.org/2000/svg">
<g id="unfold_more" clip-path="url(#clip0_690_1355)">
<path id="Vector" d="M9.99954 5.25801L12.0495 7.30801C12.3745 7.63301 12.8995 7.63301 13.2245 7.30801C13.5495 6.98301 13.5495 6.45801 13.2245 6.13301L10.5829 3.48301C10.2579 3.15801 9.73288 3.15801 9.40788 3.48301L6.76621 6.13301C6.44121 6.45801 6.44121 6.98301 6.76621 7.30801C7.09121 7.63301 7.61621 7.63301 7.94121 7.30801L9.99954 5.25801ZM9.99954 15.5413L7.94954 13.4913C7.62454 13.1663 7.09954 13.1663 6.77454 13.4913C6.44954 13.8163 6.44954 14.3413 6.77454 14.6663L9.41621 17.3163C9.74121 17.6413 10.2662 17.6413 10.5912 17.3163L13.2329 14.6747C13.5579 14.3497 13.5579 13.8247 13.2329 13.4997C12.9079 13.1747 12.3829 13.1747 12.0579 13.4997L9.99954 15.5413Z" fill="#323232"/>
</g>
<defs>
<clipPath id="clip0_690_1355">
<rect width="20" height="20" fill="white" transform="translate(0 0.399902)"/>
</clipPath>
</defs>
</svg>
