<svg width="20" height="21" viewBox="0 0 20 21" fill="none" xmlns="http://www.w3.org/2000/svg">
<g clip-path="url(#clip0_690_1381)">
<path d="M6.76621 16.4832C7.09121 16.8082 7.61621 16.8082 7.94121 16.4832L9.99954 14.4248L12.0579 16.4832C12.3829 16.8082 12.9079 16.8082 13.2329 16.4832C13.5579 16.1582 13.5579 15.6332 13.2329 15.3082L10.5912 12.6665C10.2662 12.3415 9.74121 12.3415 9.41621 12.6665L6.77454 15.3082C6.44121 15.6248 6.44121 16.1582 6.76621 16.4832V16.4832ZM13.2329 4.3165C12.9079 3.9915 12.3829 3.9915 12.0579 4.3165L9.99954 6.37484L7.94121 4.3165C7.61621 3.9915 7.09121 3.9915 6.76621 4.3165C6.44121 4.6415 6.44121 5.17484 6.76621 5.49984L9.40788 8.1415C9.73288 8.4665 10.2579 8.4665 10.5829 8.1415L13.2245 5.49984C13.5579 5.17484 13.5579 4.6415 13.2329 4.3165V4.3165Z" fill="#323232"/>
</g>
<defs>
<clipPath id="clip0_690_1381">
<rect width="20" height="20" fill="white" transform="translate(0 0.399902)"/>
</clipPath>
</defs>
</svg>
